<svg width="33" height="32" viewBox="0 0 33 32" fill="none" xmlns="http://www.w3.org/2000/svg">
<g id="height">
<mask id="mask0_74_98476" style="mask-type:alpha" maskUnits="userSpaceOnUse" x="0" y="0" width="33" height="32">
<rect id="Bounding box" x="0.5" width="32" height="32" fill="#D9D9D9"/>
</mask>
<g mask="url(#mask0_74_98476)">
<path id="height_2" d="M16.5 27.0333C16.3445 27.0333 16.1947 27.0053 16.0507 26.9493C15.9058 26.8942 15.7778 26.8111 15.6667 26.7L12.3 23.3333C12.1222 23.1556 12.0334 22.9333 12.0334 22.6667C12.0334 22.4 12.1334 22.1667 12.3334 21.9667C12.5111 21.7667 12.7445 21.6667 13.0334 21.6667C13.3222 21.6667 13.5556 21.7667 13.7334 21.9667L15.5 23.7V8.30001L13.7 10.0667C13.5222 10.2667 13.3 10.3667 13.0334 10.3667C12.7667 10.3667 12.5334 10.2556 12.3334 10.0333C12.1556 9.85556 12.0667 9.62223 12.0667 9.33334C12.0667 9.04445 12.1556 8.81112 12.3334 8.63334L15.6667 5.30001C15.7778 5.1889 15.9058 5.10534 16.0507 5.04934C16.1947 4.99423 16.3445 4.96667 16.5 4.96667C16.6556 4.96667 16.8058 4.99423 16.9507 5.04934C17.0947 5.10534 17.2222 5.1889 17.3334 5.30001L20.7 8.66668C20.8778 8.84445 20.9667 9.06668 20.9667 9.33334C20.9667 9.60001 20.8667 9.83334 20.6667 10.0333C20.4889 10.2333 20.2556 10.3333 19.9667 10.3333C19.6778 10.3333 19.4445 10.2333 19.2667 10.0333L17.5 8.30001V23.7L19.3 21.9333C19.4778 21.7333 19.7 21.6333 19.9667 21.6333C20.2334 21.6333 20.4667 21.7445 20.6667 21.9667C20.8445 22.1445 20.9334 22.3778 20.9334 22.6667C20.9334 22.9556 20.8445 23.1889 20.6667 23.3667L17.3334 26.7C17.2222 26.8111 17.0947 26.8942 16.9507 26.9493C16.8058 27.0053 16.6556 27.0333 16.5 27.0333Z" fill="#1C1B1F"/>
</g>
</g>
</svg>
