<svg width="33" height="32" viewBox="0 0 33 32" fill="none" xmlns="http://www.w3.org/2000/svg">
<g id="weight">
<mask id="mask0_74_98468" style="mask-type:alpha" maskUnits="userSpaceOnUse" x="0" y="0" width="33" height="32">
<rect id="Bounding box" x="0.5" width="32" height="32" fill="#D9D9D9"/>
</mask>
<g mask="url(#mask0_74_98468)">
<path id="weight_2" d="M8.9666 25.3333H24.0333C24.1444 25.3333 24.2444 25.2831 24.3333 25.1827C24.4222 25.0831 24.4555 24.9778 24.4333 24.8667L22.6666 12.3333C22.6444 12.2445 22.5946 12.1667 22.5173 12.1C22.439 12.0333 22.3444 12 22.2333 12H10.7666C10.6555 12 10.5613 12.0333 10.4839 12.1C10.4057 12.1667 10.3555 12.2445 10.3333 12.3333L8.5666 24.8667C8.54438 24.9778 8.57771 25.0831 8.6666 25.1827C8.75549 25.2831 8.85549 25.3333 8.9666 25.3333ZM16.4999 10C16.8777 10 17.1946 9.87245 17.4506 9.61734C17.7057 9.36134 17.8333 9.04445 17.8333 8.66668C17.8333 8.2889 17.7057 7.97201 17.4506 7.71601C17.1946 7.4609 16.8777 7.33334 16.4999 7.33334C16.1222 7.33334 15.8057 7.4609 15.5506 7.71601C15.2946 7.97201 15.1666 8.2889 15.1666 8.66668C15.1666 9.04445 15.2946 9.36134 15.5506 9.61734C15.8057 9.87245 16.1222 10 16.4999 10ZM19.5333 10H22.2666C22.8666 10 23.3888 10.2 23.8333 10.6C24.2777 11 24.5444 11.4889 24.6333 12.0667L26.3999 24.6C26.511 25.3111 26.3279 25.9445 25.8506 26.5C25.3724 27.0556 24.7666 27.3333 24.0333 27.3333H8.9666C8.23327 27.3333 7.62793 27.0556 7.1506 26.5C6.67238 25.9445 6.48882 25.3111 6.59993 24.6L8.3666 12.0667C8.45549 11.4889 8.72216 11 9.1666 10.6C9.61105 10.2 10.1333 10 10.7333 10H13.4666C13.3777 9.80001 13.3053 9.5889 13.2493 9.36668C13.1942 9.14445 13.1666 8.91112 13.1666 8.66668C13.1666 7.73334 13.4888 6.94445 14.1333 6.30001C14.7777 5.65557 15.5666 5.33334 16.4999 5.33334C17.4333 5.33334 18.2222 5.65557 18.8666 6.30001C19.511 6.94445 19.8333 7.73334 19.8333 8.66668C19.8333 8.91112 19.8057 9.14445 19.7506 9.36668C19.6946 9.5889 19.6222 9.80001 19.5333 10Z" fill="#1C1B1F"/>
</g>
</g>
</svg>
